<svg width="40" height="40" viewBox="0 0 40 40" fill="none" xmlns="http://www.w3.org/2000/svg">
<path d="M13.3334 20L12.9798 19.6464C12.886 19.7402 12.8334 19.8674 12.8334 20H13.3334ZM28.3334 5L28.6869 4.64645C28.4916 4.45118 28.1751 4.45118 27.9798 4.64645L28.3334 5ZM35 11.6667L35.3536 12.0202C35.5488 11.825 35.5488 11.5084 35.3536 11.3131L35 11.6667ZM20 26.6667V27.1667C20.1326 27.1667 20.2598 27.114 20.3536 27.0202L20 26.6667ZM13.3334 26.6667H12.8334C12.8334 26.9428 13.0572 27.1667 13.3334 27.1667V26.6667ZM33.3334 33.3333V33.8333C33.466 33.8333 33.5931 33.7807 33.6869 33.6869C33.7807 33.5931 33.8334 33.4659 33.8334 33.3333H33.3334ZM6.66669 33.3333H6.16669C6.16669 33.6095 6.39054 33.8333 6.66669 33.8333L6.66669 33.3333ZM6.66669 6.66666L6.66669 6.16666C6.39055 6.16666 6.16669 6.39052 6.16669 6.66666L6.66669 6.66666ZM20 7.16667C20.2762 7.16667 20.5 6.94281 20.5 6.66667C20.5 6.39052 20.2762 6.16667 20 6.16667V7.16667ZM33.8334 20C33.8334 19.7239 33.6095 19.5 33.3334 19.5C33.0572 19.5 32.8334 19.7239 32.8334 20H33.8334ZM13.6869 20.3536L28.6869 5.35355L27.9798 4.64645L12.9798 19.6464L13.6869 20.3536ZM27.9798 5.35355L34.6465 12.0202L35.3536 11.3131L28.6869 4.64645L27.9798 5.35355ZM34.6465 11.3131L19.6465 26.3131L20.3536 27.0202L35.3536 12.0202L34.6465 11.3131ZM20 26.1667H13.3334V27.1667H20V26.1667ZM13.8334 26.6667V20H12.8334V26.6667H13.8334ZM22.9798 10.3536L29.6465 17.0202L30.3536 16.3131L23.6869 9.64645L22.9798 10.3536ZM33.3334 32.8333L6.66669 32.8333L6.66669 33.8333L33.3334 33.8333V32.8333ZM7.16669 33.3333L7.16669 6.66666L6.16669 6.66666L6.16669 33.3333H7.16669ZM6.66669 7.16666L20 7.16667V6.16667L6.66669 6.16666L6.66669 7.16666ZM32.8334 20V33.3333H33.8334V20H32.8334Z" fill="#333333"/>
</svg>
